<svg xmlns="http://www.w3.org/2000/svg" viewBox="0 0 200 200" width="200" height="200"><style>@keyframes bl_flick{0%,100%{opacity:1}43%{opacity:1}44%{opacity:.74}45%{opacity:1}46%{opacity:.9}47%{opacity:1}70%{opacity:1}71%{opacity:.85}72%{opacity:1}}.bl_neon{animation:bl_flick 5.84s infinite ease-in-out;animation-delay:-0.72s;will-change:opacity}@media(prefers-reduced-motion:reduce){.bl_neon{animation:none}}</style><defs><filter id="bl_gw" x="-80%" y="-80%" width="260%" height="260%"><feGaussianBlur stdDeviation="6.5"/></filter><filter id="bl_gs" x="-60%" y="-60%" width="220%" height="220%"><feGaussianBlur stdDeviation="2.4"/></filter><path id="bl_p1" d="M90,46 a10,10 0 1,0 20,0 a10,10 0 1,0 -20,0 Z"/><path id="bl_p2" d="M100,56 C74,56 66,78 62,104 C58,128 50,142 42,152 L158,152 C150,142 142,128 138,104 C134,78 126,56 100,56 Z"/><path id="bl_p3" d="M91,172 a9,9 0 1,0 18,0 a9,9 0 1,0 -18,0 Z"/></defs><g class="bl_neon"><g filter="url(#bl_gw)"><g stroke="#ffe23a" stroke-width="16.0" opacity="0.26" fill="none" stroke-linecap="round" stroke-linejoin="round"><use href="#bl_p1"/><use href="#bl_p2"/><use href="#bl_p3"/></g></g><g filter="url(#bl_gs)"><g stroke="#ffe23a" stroke-width="9.0" opacity="0.5" fill="none" stroke-linecap="round" stroke-linejoin="round"><use href="#bl_p1"/><use href="#bl_p2"/><use href="#bl_p3"/></g></g><g stroke="#ffe23a" stroke-width="6.5" fill="none" stroke-linecap="round" stroke-linejoin="round"><use href="#bl_p1"/><use href="#bl_p2"/><use href="#bl_p3"/></g><g stroke="#fffcef" stroke-width="2.0" opacity="0.92" fill="none" stroke-linecap="round" stroke-linejoin="round"><use href="#bl_p1"/><use href="#bl_p2"/><use href="#bl_p3"/></g></g></svg>