<svg xmlns="http://www.w3.org/2000/svg" viewBox="-0.45 -4.96 62 62" width="512" height="512" role="img" aria-label="Two seeds in orange neon">
  <defs>
    <filter id="halo" x="-60%" y="-60%" width="220%" height="220%">
      <feGaussianBlur stdDeviation="3.0"/>
    </filter>
    <filter id="glow" x="-60%" y="-60%" width="220%" height="220%">
      <feGaussianBlur stdDeviation="1.15"/>
    </filter>
  </defs>
    <!-- back_seed -->
    <path d="M30.512,2.678 c-0.795,1.19-1.588,2.541-2.442,4.161C27.813,7.328,28,7.932,28.488,8.19c0.149,0.078,0.308,0.115,0.465,0.115 c0.359,0,0.707-0.194,0.886-0.534c1.13-2.145,2.143-3.792,3.194-5.195c1.357,1.792,3.999,6.367,3.839,14.723 c-0.032,0.313-0.072,0.627-0.116,0.939c-0.026,0.012-0.052,0.025-0.079,0.037c-0.265,0.118-0.537,0.245-0.813,0.38 c-0.181,0.088-0.361,0.18-0.541,0.273c-0.105,0.054-0.21,0.109-0.316,0.165c-1.018,0.54-2.031,1.159-3.036,1.856 c-0.066,0.045-0.131,0.091-0.197,0.137c-0.231,0.162-0.461,0.328-0.691,0.499c-0.096,0.071-0.192,0.145-0.289,0.218 c-0.212,0.161-0.424,0.323-0.636,0.491c-0.136,0.108-0.273,0.222-0.41,0.334c-0.178,0.146-0.357,0.289-0.535,0.44 c-0.319,0.271-0.641,0.551-0.965,0.844c-0.426,0.453-0.839,0.921-1.24,1.405c-0.828,0.998-1.601,2.06-2.317,3.176 c-0.001,0.001-0.002,0.002-0.003,0.003c-0.326,0.506-0.638,1.021-0.936,1.543c-0.04,0.071-0.076,0.147-0.116,0.218 c-0.341,0.608-0.658,1.225-0.957,1.848c-0.006,0.012-0.014,0.029-0.024,0.051l-0.022,0.048l0,0c-0.01,0.021-0.019,0.043-0.03,0.065 l-0.001,0c-0.001,0.001,0,0.003-0.001,0.004c-0.035,0.073-0.067,0.147-0.101,0.22c0.789-6.431,2.232-12.468,4.312-17.963 c0.196-0.517-0.064-1.094-0.581-1.29c-0.517-0.195-1.094,0.065-1.289,0.581c-2.203,5.819-3.708,12.222-4.498,19.042 c-0.18-0.055-0.352-0.111-0.545-0.165c-2.201-0.611-4.939-1.373-4.813-8.044c0.235-2.316,0.764-4.655,1.573-6.952 c0.422-1.206,0.944-2.43,1.549-3.638c0.003-0.005,0.002-0.011,0.005-0.016c0.471-0.939,0.975-1.843,1.52-2.687 C23.922,5.922,27.973,3.638,30.512,2.678z" fill="none" stroke="#ff6a00" stroke-width="2.6" opacity="0.55" filter="url(#halo)" stroke-linecap="round" stroke-linejoin="round"/>
    <path d="M30.512,2.678 c-0.795,1.19-1.588,2.541-2.442,4.161C27.813,7.328,28,7.932,28.488,8.19c0.149,0.078,0.308,0.115,0.465,0.115 c0.359,0,0.707-0.194,0.886-0.534c1.13-2.145,2.143-3.792,3.194-5.195c1.357,1.792,3.999,6.367,3.839,14.723 c-0.032,0.313-0.072,0.627-0.116,0.939c-0.026,0.012-0.052,0.025-0.079,0.037c-0.265,0.118-0.537,0.245-0.813,0.38 c-0.181,0.088-0.361,0.18-0.541,0.273c-0.105,0.054-0.21,0.109-0.316,0.165c-1.018,0.54-2.031,1.159-3.036,1.856 c-0.066,0.045-0.131,0.091-0.197,0.137c-0.231,0.162-0.461,0.328-0.691,0.499c-0.096,0.071-0.192,0.145-0.289,0.218 c-0.212,0.161-0.424,0.323-0.636,0.491c-0.136,0.108-0.273,0.222-0.41,0.334c-0.178,0.146-0.357,0.289-0.535,0.44 c-0.319,0.271-0.641,0.551-0.965,0.844c-0.426,0.453-0.839,0.921-1.24,1.405c-0.828,0.998-1.601,2.06-2.317,3.176 c-0.001,0.001-0.002,0.002-0.003,0.003c-0.326,0.506-0.638,1.021-0.936,1.543c-0.04,0.071-0.076,0.147-0.116,0.218 c-0.341,0.608-0.658,1.225-0.957,1.848c-0.006,0.012-0.014,0.029-0.024,0.051l-0.022,0.048l0,0c-0.01,0.021-0.019,0.043-0.03,0.065 l-0.001,0c-0.001,0.001,0,0.003-0.001,0.004c-0.035,0.073-0.067,0.147-0.101,0.22c0.789-6.431,2.232-12.468,4.312-17.963 c0.196-0.517-0.064-1.094-0.581-1.29c-0.517-0.195-1.094,0.065-1.289,0.581c-2.203,5.819-3.708,12.222-4.498,19.042 c-0.18-0.055-0.352-0.111-0.545-0.165c-2.201-0.611-4.939-1.373-4.813-8.044c0.235-2.316,0.764-4.655,1.573-6.952 c0.422-1.206,0.944-2.43,1.549-3.638c0.003-0.005,0.002-0.011,0.005-0.016c0.471-0.939,0.975-1.843,1.52-2.687 C23.922,5.922,27.973,3.638,30.512,2.678z" fill="none" stroke="#ff8a1f" stroke-width="1.6" opacity="0.95" filter="url(#glow)" stroke-linecap="round" stroke-linejoin="round"/>
    <path d="M30.512,2.678 c-0.795,1.19-1.588,2.541-2.442,4.161C27.813,7.328,28,7.932,28.488,8.19c0.149,0.078,0.308,0.115,0.465,0.115 c0.359,0,0.707-0.194,0.886-0.534c1.13-2.145,2.143-3.792,3.194-5.195c1.357,1.792,3.999,6.367,3.839,14.723 c-0.032,0.313-0.072,0.627-0.116,0.939c-0.026,0.012-0.052,0.025-0.079,0.037c-0.265,0.118-0.537,0.245-0.813,0.38 c-0.181,0.088-0.361,0.18-0.541,0.273c-0.105,0.054-0.21,0.109-0.316,0.165c-1.018,0.54-2.031,1.159-3.036,1.856 c-0.066,0.045-0.131,0.091-0.197,0.137c-0.231,0.162-0.461,0.328-0.691,0.499c-0.096,0.071-0.192,0.145-0.289,0.218 c-0.212,0.161-0.424,0.323-0.636,0.491c-0.136,0.108-0.273,0.222-0.41,0.334c-0.178,0.146-0.357,0.289-0.535,0.44 c-0.319,0.271-0.641,0.551-0.965,0.844c-0.426,0.453-0.839,0.921-1.24,1.405c-0.828,0.998-1.601,2.06-2.317,3.176 c-0.001,0.001-0.002,0.002-0.003,0.003c-0.326,0.506-0.638,1.021-0.936,1.543c-0.04,0.071-0.076,0.147-0.116,0.218 c-0.341,0.608-0.658,1.225-0.957,1.848c-0.006,0.012-0.014,0.029-0.024,0.051l-0.022,0.048l0,0c-0.01,0.021-0.019,0.043-0.03,0.065 l-0.001,0c-0.001,0.001,0,0.003-0.001,0.004c-0.035,0.073-0.067,0.147-0.101,0.22c0.789-6.431,2.232-12.468,4.312-17.963 c0.196-0.517-0.064-1.094-0.581-1.29c-0.517-0.195-1.094,0.065-1.289,0.581c-2.203,5.819-3.708,12.222-4.498,19.042 c-0.18-0.055-0.352-0.111-0.545-0.165c-2.201-0.611-4.939-1.373-4.813-8.044c0.235-2.316,0.764-4.655,1.573-6.952 c0.422-1.206,0.944-2.43,1.549-3.638c0.003-0.005,0.002-0.011,0.005-0.016c0.471-0.939,0.975-1.843,1.52-2.687 C23.922,5.922,27.973,3.638,30.512,2.678z" fill="none" stroke="#ffb04d" stroke-width="0.95" stroke-linecap="round" stroke-linejoin="round"/>
    <path d="M30.512,2.678 c-0.795,1.19-1.588,2.541-2.442,4.161C27.813,7.328,28,7.932,28.488,8.19c0.149,0.078,0.308,0.115,0.465,0.115 c0.359,0,0.707-0.194,0.886-0.534c1.13-2.145,2.143-3.792,3.194-5.195c1.357,1.792,3.999,6.367,3.839,14.723 c-0.032,0.313-0.072,0.627-0.116,0.939c-0.026,0.012-0.052,0.025-0.079,0.037c-0.265,0.118-0.537,0.245-0.813,0.38 c-0.181,0.088-0.361,0.18-0.541,0.273c-0.105,0.054-0.21,0.109-0.316,0.165c-1.018,0.54-2.031,1.159-3.036,1.856 c-0.066,0.045-0.131,0.091-0.197,0.137c-0.231,0.162-0.461,0.328-0.691,0.499c-0.096,0.071-0.192,0.145-0.289,0.218 c-0.212,0.161-0.424,0.323-0.636,0.491c-0.136,0.108-0.273,0.222-0.41,0.334c-0.178,0.146-0.357,0.289-0.535,0.44 c-0.319,0.271-0.641,0.551-0.965,0.844c-0.426,0.453-0.839,0.921-1.24,1.405c-0.828,0.998-1.601,2.06-2.317,3.176 c-0.001,0.001-0.002,0.002-0.003,0.003c-0.326,0.506-0.638,1.021-0.936,1.543c-0.04,0.071-0.076,0.147-0.116,0.218 c-0.341,0.608-0.658,1.225-0.957,1.848c-0.006,0.012-0.014,0.029-0.024,0.051l-0.022,0.048l0,0c-0.01,0.021-0.019,0.043-0.03,0.065 l-0.001,0c-0.001,0.001,0,0.003-0.001,0.004c-0.035,0.073-0.067,0.147-0.101,0.22c0.789-6.431,2.232-12.468,4.312-17.963 c0.196-0.517-0.064-1.094-0.581-1.29c-0.517-0.195-1.094,0.065-1.289,0.581c-2.203,5.819-3.708,12.222-4.498,19.042 c-0.18-0.055-0.352-0.111-0.545-0.165c-2.201-0.611-4.939-1.373-4.813-8.044c0.235-2.316,0.764-4.655,1.573-6.952 c0.422-1.206,0.944-2.43,1.549-3.638c0.003-0.005,0.002-0.011,0.005-0.016c0.471-0.939,0.975-1.843,1.52-2.687 C23.922,5.922,27.973,3.638,30.512,2.678z" fill="none" stroke="#fff2dd" stroke-width="0.34" stroke-linecap="round" stroke-linejoin="round"/>
    <!-- front_seed -->
    <path d="M45.45,34.245c-0.645,2.238-1.583,4.444-2.789,6.56 c-1.203,2.116-2.622,4.05-4.158,5.689c-5.009,4.53-7.381,2.961-9.288,1.701c-0.573-0.379-2.597-1.531-3.216-1.831 c-1.219-0.591-2.609-1.276-3.269-3.093c-0.005-0.018,0-0.036-0.007-0.054c-0.48-1.395-0.484-3.299-0.013-5.659 c0.124-0.427,0.266-0.853,0.411-1.277c0.135-0.385,0.282-0.784,0.453-1.221c0.266-0.68,0.555-1.342,0.859-1.987 c0.022-0.048,0.051-0.111,0.053-0.114c0.001-0.001,0-0.003,0.001-0.005l0.001-0.001c0.315-0.662,0.649-1.305,1-1.921 c0-0.001,0.001-0.001,0.002-0.002c0.28-0.492,0.575-0.975,0.88-1.451c0,0,0,0,0,0c0.311-0.485,0.634-0.955,0.965-1.414 c0.003-0.004,0.007-0.007,0.009-0.011c0.002-0.003,0.002-0.005,0.004-0.008c0.726-1.003,1.495-1.946,2.299-2.805 c0.415-0.375,0.824-0.724,1.23-1.059c0.119-0.098,0.238-0.192,0.357-0.288c0.298-0.239,0.592-0.469,0.884-0.688 c0.121-0.091,0.242-0.182,0.363-0.27c0.31-0.226,0.615-0.439,0.917-0.642c0.09-0.061,0.18-0.125,0.27-0.185 c0.797-0.526,1.566-0.978,2.298-1.366c0.149-0.079,0.298-0.149,0.448-0.224c0.209-0.105,0.42-0.214,0.623-0.309 c0.252-0.118,0.504-0.227,0.757-0.334c0.474-0.202,0.934-0.387,1.363-0.537l-4.333,13.255l10.953-8.865 C46.189,26.3,46.341,29.813,45.45,34.245z" fill="none" stroke="#ff6a00" stroke-width="2.6" opacity="0.55" filter="url(#halo)" stroke-linecap="round" stroke-linejoin="round"/>
    <path d="M45.45,34.245c-0.645,2.238-1.583,4.444-2.789,6.56 c-1.203,2.116-2.622,4.05-4.158,5.689c-5.009,4.53-7.381,2.961-9.288,1.701c-0.573-0.379-2.597-1.531-3.216-1.831 c-1.219-0.591-2.609-1.276-3.269-3.093c-0.005-0.018,0-0.036-0.007-0.054c-0.48-1.395-0.484-3.299-0.013-5.659 c0.124-0.427,0.266-0.853,0.411-1.277c0.135-0.385,0.282-0.784,0.453-1.221c0.266-0.68,0.555-1.342,0.859-1.987 c0.022-0.048,0.051-0.111,0.053-0.114c0.001-0.001,0-0.003,0.001-0.005l0.001-0.001c0.315-0.662,0.649-1.305,1-1.921 c0-0.001,0.001-0.001,0.002-0.002c0.28-0.492,0.575-0.975,0.88-1.451c0,0,0,0,0,0c0.311-0.485,0.634-0.955,0.965-1.414 c0.003-0.004,0.007-0.007,0.009-0.011c0.002-0.003,0.002-0.005,0.004-0.008c0.726-1.003,1.495-1.946,2.299-2.805 c0.415-0.375,0.824-0.724,1.23-1.059c0.119-0.098,0.238-0.192,0.357-0.288c0.298-0.239,0.592-0.469,0.884-0.688 c0.121-0.091,0.242-0.182,0.363-0.27c0.31-0.226,0.615-0.439,0.917-0.642c0.09-0.061,0.18-0.125,0.27-0.185 c0.797-0.526,1.566-0.978,2.298-1.366c0.149-0.079,0.298-0.149,0.448-0.224c0.209-0.105,0.42-0.214,0.623-0.309 c0.252-0.118,0.504-0.227,0.757-0.334c0.474-0.202,0.934-0.387,1.363-0.537l-4.333,13.255l10.953-8.865 C46.189,26.3,46.341,29.813,45.45,34.245z" fill="none" stroke="#ff8a1f" stroke-width="1.6" opacity="0.95" filter="url(#glow)" stroke-linecap="round" stroke-linejoin="round"/>
    <path d="M45.45,34.245c-0.645,2.238-1.583,4.444-2.789,6.56 c-1.203,2.116-2.622,4.05-4.158,5.689c-5.009,4.53-7.381,2.961-9.288,1.701c-0.573-0.379-2.597-1.531-3.216-1.831 c-1.219-0.591-2.609-1.276-3.269-3.093c-0.005-0.018,0-0.036-0.007-0.054c-0.48-1.395-0.484-3.299-0.013-5.659 c0.124-0.427,0.266-0.853,0.411-1.277c0.135-0.385,0.282-0.784,0.453-1.221c0.266-0.68,0.555-1.342,0.859-1.987 c0.022-0.048,0.051-0.111,0.053-0.114c0.001-0.001,0-0.003,0.001-0.005l0.001-0.001c0.315-0.662,0.649-1.305,1-1.921 c0-0.001,0.001-0.001,0.002-0.002c0.28-0.492,0.575-0.975,0.88-1.451c0,0,0,0,0,0c0.311-0.485,0.634-0.955,0.965-1.414 c0.003-0.004,0.007-0.007,0.009-0.011c0.002-0.003,0.002-0.005,0.004-0.008c0.726-1.003,1.495-1.946,2.299-2.805 c0.415-0.375,0.824-0.724,1.23-1.059c0.119-0.098,0.238-0.192,0.357-0.288c0.298-0.239,0.592-0.469,0.884-0.688 c0.121-0.091,0.242-0.182,0.363-0.27c0.31-0.226,0.615-0.439,0.917-0.642c0.09-0.061,0.18-0.125,0.27-0.185 c0.797-0.526,1.566-0.978,2.298-1.366c0.149-0.079,0.298-0.149,0.448-0.224c0.209-0.105,0.42-0.214,0.623-0.309 c0.252-0.118,0.504-0.227,0.757-0.334c0.474-0.202,0.934-0.387,1.363-0.537l-4.333,13.255l10.953-8.865 C46.189,26.3,46.341,29.813,45.45,34.245z" fill="none" stroke="#ffb04d" stroke-width="0.95" stroke-linecap="round" stroke-linejoin="round"/>
    <path d="M45.45,34.245c-0.645,2.238-1.583,4.444-2.789,6.56 c-1.203,2.116-2.622,4.05-4.158,5.689c-5.009,4.53-7.381,2.961-9.288,1.701c-0.573-0.379-2.597-1.531-3.216-1.831 c-1.219-0.591-2.609-1.276-3.269-3.093c-0.005-0.018,0-0.036-0.007-0.054c-0.48-1.395-0.484-3.299-0.013-5.659 c0.124-0.427,0.266-0.853,0.411-1.277c0.135-0.385,0.282-0.784,0.453-1.221c0.266-0.68,0.555-1.342,0.859-1.987 c0.022-0.048,0.051-0.111,0.053-0.114c0.001-0.001,0-0.003,0.001-0.005l0.001-0.001c0.315-0.662,0.649-1.305,1-1.921 c0-0.001,0.001-0.001,0.002-0.002c0.28-0.492,0.575-0.975,0.88-1.451c0,0,0,0,0,0c0.311-0.485,0.634-0.955,0.965-1.414 c0.003-0.004,0.007-0.007,0.009-0.011c0.002-0.003,0.002-0.005,0.004-0.008c0.726-1.003,1.495-1.946,2.299-2.805 c0.415-0.375,0.824-0.724,1.23-1.059c0.119-0.098,0.238-0.192,0.357-0.288c0.298-0.239,0.592-0.469,0.884-0.688 c0.121-0.091,0.242-0.182,0.363-0.27c0.31-0.226,0.615-0.439,0.917-0.642c0.09-0.061,0.18-0.125,0.27-0.185 c0.797-0.526,1.566-0.978,2.298-1.366c0.149-0.079,0.298-0.149,0.448-0.224c0.209-0.105,0.42-0.214,0.623-0.309 c0.252-0.118,0.504-0.227,0.757-0.334c0.474-0.202,0.934-0.387,1.363-0.537l-4.333,13.255l10.953-8.865 C46.189,26.3,46.341,29.813,45.45,34.245z" fill="none" stroke="#fff2dd" stroke-width="0.34" stroke-linecap="round" stroke-linejoin="round"/>
    <!-- sprout -->
    <path d="M40.883,20.592c0.91-0.187,1.607-0.234,2.052-0.24c0.262,0.455,0.649,1.24,1.003,2.392l-5.111,4.136L40.883,20.592z" fill="none" stroke="#ff6a00" stroke-width="2.6" opacity="0.55" filter="url(#halo)" stroke-linecap="round" stroke-linejoin="round"/>
    <path d="M40.883,20.592c0.91-0.187,1.607-0.234,2.052-0.24c0.262,0.455,0.649,1.24,1.003,2.392l-5.111,4.136L40.883,20.592z" fill="none" stroke="#ff8a1f" stroke-width="1.6" opacity="0.95" filter="url(#glow)" stroke-linecap="round" stroke-linejoin="round"/>
    <path d="M40.883,20.592c0.91-0.187,1.607-0.234,2.052-0.24c0.262,0.455,0.649,1.24,1.003,2.392l-5.111,4.136L40.883,20.592z" fill="none" stroke="#ffb04d" stroke-width="0.95" stroke-linecap="round" stroke-linejoin="round"/>
    <path d="M40.883,20.592c0.91-0.187,1.607-0.234,2.052-0.24c0.262,0.455,0.649,1.24,1.003,2.392l-5.111,4.136L40.883,20.592z" fill="none" stroke="#fff2dd" stroke-width="0.34" stroke-linecap="round" stroke-linejoin="round"/>
    <!-- vein -->
    <path d="M32.58,25.633c-0.31,0.186-7.597,4.67-8.051,13.724c-0.028,0.552,0.397,1.021,0.948,1.049 c0.017,0.001,0.034,0.001,0.051,0.001c0.529,0,0.971-0.415,0.998-0.95c0.4-7.965,7.02-12.07,7.086-12.111 c0.472-0.285,0.623-0.9,0.338-1.372C33.666,25.501,33.052,25.347,32.58,25.633z" fill="none" stroke="#ff6a00" stroke-width="2.6" opacity="0.55" filter="url(#halo)" stroke-linecap="round" stroke-linejoin="round"/>
    <path d="M32.58,25.633c-0.31,0.186-7.597,4.67-8.051,13.724c-0.028,0.552,0.397,1.021,0.948,1.049 c0.017,0.001,0.034,0.001,0.051,0.001c0.529,0,0.971-0.415,0.998-0.95c0.4-7.965,7.02-12.07,7.086-12.111 c0.472-0.285,0.623-0.9,0.338-1.372C33.666,25.501,33.052,25.347,32.58,25.633z" fill="none" stroke="#ff8a1f" stroke-width="1.6" opacity="0.95" filter="url(#glow)" stroke-linecap="round" stroke-linejoin="round"/>
    <path d="M32.58,25.633c-0.31,0.186-7.597,4.67-8.051,13.724c-0.028,0.552,0.397,1.021,0.948,1.049 c0.017,0.001,0.034,0.001,0.051,0.001c0.529,0,0.971-0.415,0.998-0.95c0.4-7.965,7.02-12.07,7.086-12.111 c0.472-0.285,0.623-0.9,0.338-1.372C33.666,25.501,33.052,25.347,32.58,25.633z" fill="none" stroke="#ffb04d" stroke-width="0.95" stroke-linecap="round" stroke-linejoin="round"/>
    <path d="M32.58,25.633c-0.31,0.186-7.597,4.67-8.051,13.724c-0.028,0.552,0.397,1.021,0.948,1.049 c0.017,0.001,0.034,0.001,0.051,0.001c0.529,0,0.971-0.415,0.998-0.95c0.4-7.965,7.02-12.07,7.086-12.111 c0.472-0.285,0.623-0.9,0.338-1.372C33.666,25.501,33.052,25.347,32.58,25.633z" fill="none" stroke="#fff2dd" stroke-width="0.34" stroke-linecap="round" stroke-linejoin="round"/>
</svg>