<svg xmlns="http://www.w3.org/2000/svg" viewBox="0 0 200 200" width="200" height="200"><style>@keyframes ch_flick{0%,100%{opacity:1}43%{opacity:1}44%{opacity:.74}45%{opacity:1}46%{opacity:.9}47%{opacity:1}70%{opacity:1}71%{opacity:.85}72%{opacity:1}}.ch_neon{animation:ch_flick 6.6s infinite ease-in-out;animation-delay:-1.87s;will-change:opacity}@media(prefers-reduced-motion:reduce){.ch_neon{animation:none}}</style><defs><filter id="ch_gw" x="-80%" y="-80%" width="260%" height="260%"><feGaussianBlur stdDeviation="6.5"/></filter><filter id="ch_gs" x="-60%" y="-60%" width="220%" height="220%"><feGaussianBlur stdDeviation="2.4"/></filter><path id="ch_p1" d="M42,142 a28,28 0 1,0 56,0 a28,28 0 1,0 -56,0 Z"/><path id="ch_p2" d="M106,150 a26,26 0 1,0 52,0 a26,26 0 1,0 -52,0 Z"/><path id="ch_p3" d="M70,114 C82,82 104,66 122,54"/><path id="ch_p4" d="M132,124 C128,94 124,72 122,54"/><path id="ch_p5" d="M122,54 C150,30 186,40 180,66 C166,84 136,80 122,54 Z"/><path id="ch_p6" d="M132,58 C146,54 164,54 176,60"/></defs><g class="ch_neon"><g filter="url(#ch_gw)"><g stroke="#ff2e63" stroke-width="16.0" opacity="0.26" fill="none" stroke-linecap="round" stroke-linejoin="round"><use href="#ch_p1"/><use href="#ch_p2"/></g><g stroke="#39ff8b" stroke-width="16.0" opacity="0.26" fill="none" stroke-linecap="round" stroke-linejoin="round"><use href="#ch_p3"/><use href="#ch_p4"/><use href="#ch_p5"/><use href="#ch_p6"/></g></g><g filter="url(#ch_gs)"><g stroke="#ff2e63" stroke-width="9.0" opacity="0.5" fill="none" stroke-linecap="round" stroke-linejoin="round"><use href="#ch_p1"/><use href="#ch_p2"/></g><g stroke="#39ff8b" stroke-width="9.0" opacity="0.5" fill="none" stroke-linecap="round" stroke-linejoin="round"><use href="#ch_p3"/><use href="#ch_p4"/><use href="#ch_p5"/><use href="#ch_p6"/></g></g><g stroke="#ff2e63" stroke-width="6.5" fill="none" stroke-linecap="round" stroke-linejoin="round"><use href="#ch_p1"/><use href="#ch_p2"/></g><g stroke="#39ff8b" stroke-width="6.5" fill="none" stroke-linecap="round" stroke-linejoin="round"><use href="#ch_p3"/><use href="#ch_p4"/><use href="#ch_p5"/><use href="#ch_p6"/></g><g stroke="#ffeef2" stroke-width="2.0" opacity="0.92" fill="none" stroke-linecap="round" stroke-linejoin="round"><use href="#ch_p1"/><use href="#ch_p2"/></g><g stroke="#effff5" stroke-width="2.0" opacity="0.92" fill="none" stroke-linecap="round" stroke-linejoin="round"><use href="#ch_p3"/><use href="#ch_p4"/><use href="#ch_p5"/><use href="#ch_p6"/></g></g></svg>