<svg xmlns="http://www.w3.org/2000/svg" viewBox="0 0 200 200" width="200" height="200"><style>@keyframes cl_flick{0%,100%{opacity:1}43%{opacity:1}44%{opacity:.74}45%{opacity:1}46%{opacity:.9}47%{opacity:1}70%{opacity:1}71%{opacity:.85}72%{opacity:1}}.cl_neon{animation:cl_flick 6.75s infinite ease-in-out;animation-delay:-0.12s;will-change:opacity}@media(prefers-reduced-motion:reduce){.cl_neon{animation:none}}</style><defs><filter id="cl_gw" x="-80%" y="-80%" width="260%" height="260%"><feGaussianBlur stdDeviation="6.5"/></filter><filter id="cl_gs" x="-60%" y="-60%" width="220%" height="220%"><feGaussianBlur stdDeviation="2.4"/></filter><path id="cl_p1" d="M69,66 a31,31 0 1,0 62,0 a31,31 0 1,0 -62,0 Z"/><path id="cl_p2" d="M103,100 a31,31 0 1,0 62,0 a31,31 0 1,0 -62,0 Z"/><path id="cl_p3" d="M69,134 a31,31 0 1,0 62,0 a31,31 0 1,0 -62,0 Z"/><path id="cl_p4" d="M35,100 a31,31 0 1,0 62,0 a31,31 0 1,0 -62,0 Z"/><path id="cl_p5" d="M100,104 C112,142 116,166 110,186"/></defs><g class="cl_neon"><g filter="url(#cl_gw)"><g stroke="#39ff8b" stroke-width="16.0" opacity="0.26" fill="none" stroke-linecap="round" stroke-linejoin="round"><use href="#cl_p1"/><use href="#cl_p2"/><use href="#cl_p3"/><use href="#cl_p4"/><use href="#cl_p5"/></g></g><g filter="url(#cl_gs)"><g stroke="#39ff8b" stroke-width="9.0" opacity="0.5" fill="none" stroke-linecap="round" stroke-linejoin="round"><use href="#cl_p1"/><use href="#cl_p2"/><use href="#cl_p3"/><use href="#cl_p4"/><use href="#cl_p5"/></g></g><g stroke="#39ff8b" stroke-width="6.5" fill="none" stroke-linecap="round" stroke-linejoin="round"><use href="#cl_p1"/><use href="#cl_p2"/><use href="#cl_p3"/><use href="#cl_p4"/><use href="#cl_p5"/></g><g stroke="#effff5" stroke-width="2.0" opacity="0.92" fill="none" stroke-linecap="round" stroke-linejoin="round"><use href="#cl_p1"/><use href="#cl_p2"/><use href="#cl_p3"/><use href="#cl_p4"/><use href="#cl_p5"/></g></g></svg>