<svg xmlns="http://www.w3.org/2000/svg" viewBox="0 0 200 200" width="200" height="200"><style>@keyframes hs_flick{0%,100%{opacity:1}43%{opacity:1}44%{opacity:.74}45%{opacity:1}46%{opacity:.9}47%{opacity:1}70%{opacity:1}71%{opacity:.85}72%{opacity:1}}.hs_neon{animation:hs_flick 4.44s infinite ease-in-out;animation-delay:-0.67s;will-change:opacity}@media(prefers-reduced-motion:reduce){.hs_neon{animation:none}}</style><defs><filter id="hs_gw" x="-80%" y="-80%" width="260%" height="260%"><feGaussianBlur stdDeviation="6.5"/></filter><filter id="hs_gs" x="-60%" y="-60%" width="220%" height="220%"><feGaussianBlur stdDeviation="2.4"/></filter><path id="hs_p1" d="M65.3,147.4 A54,54 0 1 1 134.7,147.4 L120.6,130.5 A32,32 0 1 0 79.4,130.5 Z"/><path id="hs_p2" d="M57.83,87.83 A3.2,3.2 0 0 1 64.23,87.83 A3.2,3.2 0 0 1 57.83,87.83 Z"/><path id="hs_p3" d="M75.3,68.76 A3.2,3.2 0 0 1 81.7,68.76 A3.2,3.2 0 0 1 75.3,68.76 Z"/><path id="hs_p4" d="M96.8,63 A3.2,3.2 0 0 1 103.2,63 A3.2,3.2 0 0 1 96.8,63 Z"/><path id="hs_p5" d="M118.3,68.76 A3.2,3.2 0 0 1 124.7,68.76 A3.2,3.2 0 0 1 118.3,68.76 Z"/><path id="hs_p6" d="M135.77,87.83 A3.2,3.2 0 0 1 142.17,87.83 A3.2,3.2 0 0 1 135.77,87.83 Z"/><path id="hs_p7" d="M59.68,87.83 A1.34,1.34 0 0 1 62.37,87.83 A1.34,1.34 0 0 1 59.68,87.83 Z"/><path id="hs_p8" d="M77.16,68.76 A1.34,1.34 0 0 1 79.84,68.76 A1.34,1.34 0 0 1 77.16,68.76 Z"/><path id="hs_p9" d="M98.66,63 A1.34,1.34 0 0 1 101.34,63 A1.34,1.34 0 0 1 98.66,63 Z"/><path id="hs_p10" d="M120.16,68.76 A1.34,1.34 0 0 1 122.84,68.76 A1.34,1.34 0 0 1 120.16,68.76 Z"/><path id="hs_p11" d="M137.63,87.83 A1.34,1.34 0 0 1 140.32,87.83 A1.34,1.34 0 0 1 137.63,87.83 Z"/></defs><g class="hs_neon"><g filter="url(#hs_gw)"><g stroke="#ffe23a" stroke-width="16.0" opacity="0.26" fill="none" stroke-linecap="round" stroke-linejoin="round"><use href="#hs_p1"/></g><g fill="#ffe23a" opacity="0.22"><use href="#hs_p2"/><use href="#hs_p3"/><use href="#hs_p4"/><use href="#hs_p5"/><use href="#hs_p6"/></g></g><g filter="url(#hs_gs)"><g stroke="#ffe23a" stroke-width="9.0" opacity="0.5" fill="none" stroke-linecap="round" stroke-linejoin="round"><use href="#hs_p1"/></g><g fill="#ffe23a" opacity="0.50"><use href="#hs_p2"/><use href="#hs_p3"/><use href="#hs_p4"/><use href="#hs_p5"/><use href="#hs_p6"/></g></g><g stroke="#ffe23a" stroke-width="6.5" fill="none" stroke-linecap="round" stroke-linejoin="round"><use href="#hs_p1"/></g><g fill="#ffe23a"><use href="#hs_p2"/><use href="#hs_p3"/><use href="#hs_p4"/><use href="#hs_p5"/><use href="#hs_p6"/></g><g fill="#ffffff" opacity="0.85"><use href="#hs_p7"/><use href="#hs_p8"/><use href="#hs_p9"/><use href="#hs_p10"/><use href="#hs_p11"/></g><g stroke="#fffcef" stroke-width="2.0" opacity="0.92" fill="none" stroke-linecap="round" stroke-linejoin="round"><use href="#hs_p1"/></g></g></svg>