<svg xmlns="http://www.w3.org/2000/svg" viewBox="0 0 200 200" width="200" height="200"><style>@keyframes lm_flick{0%,100%{opacity:1}43%{opacity:1}44%{opacity:.74}45%{opacity:1}46%{opacity:.9}47%{opacity:1}70%{opacity:1}71%{opacity:.85}72%{opacity:1}}.lm_neon{animation:lm_flick 4.68s infinite ease-in-out;animation-delay:-1.71s;will-change:opacity}@media(prefers-reduced-motion:reduce){.lm_neon{animation:none}}</style><defs><filter id="lm_gw" x="-80%" y="-80%" width="260%" height="260%"><feGaussianBlur stdDeviation="6.5"/></filter><filter id="lm_gs" x="-60%" y="-60%" width="220%" height="220%"><feGaussianBlur stdDeviation="2.4"/></filter><path id="lm_p1" d="M42.94,124.54 A60,43 -18 0 1 157.06,87.46 A60,43 -18 0 1 42.94,124.54 Z"/><path id="lm_p2" d="M156,88 l11,-4"/><path id="lm_p3" d="M44,124 l-11,4"/><path id="lm_p4" d="M64,98 C82,86 104,84 122,92"/><path id="lm_p5" d="M146,74 C150,42 186,38 190,62 C184,82 158,86 146,74 Z"/><path id="lm_p6" d="M154,72 C166,66 180,64 188,68"/></defs><g class="lm_neon"><g filter="url(#lm_gw)"><g stroke="#eaff3a" stroke-width="16.0" opacity="0.26" fill="none" stroke-linecap="round" stroke-linejoin="round"><use href="#lm_p1"/><use href="#lm_p2"/><use href="#lm_p3"/><use href="#lm_p4"/></g><g stroke="#39ff8b" stroke-width="16.0" opacity="0.26" fill="none" stroke-linecap="round" stroke-linejoin="round"><use href="#lm_p5"/><use href="#lm_p6"/></g></g><g filter="url(#lm_gs)"><g stroke="#eaff3a" stroke-width="9.0" opacity="0.5" fill="none" stroke-linecap="round" stroke-linejoin="round"><use href="#lm_p1"/><use href="#lm_p2"/><use href="#lm_p3"/><use href="#lm_p4"/></g><g stroke="#39ff8b" stroke-width="9.0" opacity="0.5" fill="none" stroke-linecap="round" stroke-linejoin="round"><use href="#lm_p5"/><use href="#lm_p6"/></g></g><g stroke="#eaff3a" stroke-width="6.5" fill="none" stroke-linecap="round" stroke-linejoin="round"><use href="#lm_p1"/><use href="#lm_p2"/><use href="#lm_p3"/><use href="#lm_p4"/></g><g stroke="#39ff8b" stroke-width="6.5" fill="none" stroke-linecap="round" stroke-linejoin="round"><use href="#lm_p5"/><use href="#lm_p6"/></g><g stroke="#fdffef" stroke-width="2.0" opacity="0.92" fill="none" stroke-linecap="round" stroke-linejoin="round"><use href="#lm_p1"/><use href="#lm_p2"/><use href="#lm_p3"/><use href="#lm_p4"/></g><g stroke="#effff5" stroke-width="2.0" opacity="0.92" fill="none" stroke-linecap="round" stroke-linejoin="round"><use href="#lm_p5"/><use href="#lm_p6"/></g></g></svg>