<svg xmlns="http://www.w3.org/2000/svg" viewBox="0 0 200 200" width="200" height="200"><style>@keyframes sb_flick{0%,100%{opacity:1}43%{opacity:1}44%{opacity:.74}45%{opacity:1}46%{opacity:.9}47%{opacity:1}70%{opacity:1}71%{opacity:.85}72%{opacity:1}}.sb_neon{animation:sb_flick 5.38s infinite ease-in-out;animation-delay:-1.54s;will-change:opacity}@media(prefers-reduced-motion:reduce){.sb_neon{animation:none}}</style><defs><filter id="sb_gw" x="-80%" y="-80%" width="260%" height="260%"><feGaussianBlur stdDeviation="6.5"/></filter><filter id="sb_gs" x="-60%" y="-60%" width="220%" height="220%"><feGaussianBlur stdDeviation="2.4"/></filter><path id="sb_p1" d="M100,72 C76,62 52,74 50,98 C48,126 76,152 100,170 C124,152 152,126 150,98 C148,74 124,62 100,72 Z"/><path id="sb_p2" d="M100,35 L105.5,52.5 L123.4,48.5 L111,62 L123.4,75.5 L105.5,71.5 L100,89 L94.5,71.5 L76.6,75.5 L89,62 L76.6,48.5 L94.5,52.5 Z"/><path id="sb_p3" d="M100,48 L100,34"/><path id="sb_p4" d="M79.4,98 A2.6,2.6 0 0 1 84.6,98 A2.6,2.6 0 0 1 79.4,98 Z"/><path id="sb_p5" d="M97.4,92 A2.6,2.6 0 0 1 102.6,92 A2.6,2.6 0 0 1 97.4,92 Z"/><path id="sb_p6" d="M115.4,98 A2.6,2.6 0 0 1 120.6,98 A2.6,2.6 0 0 1 115.4,98 Z"/><path id="sb_p7" d="M69.4,120 A2.6,2.6 0 0 1 74.6,120 A2.6,2.6 0 0 1 69.4,120 Z"/><path id="sb_p8" d="M88.4,114 A2.6,2.6 0 0 1 93.6,114 A2.6,2.6 0 0 1 88.4,114 Z"/><path id="sb_p9" d="M106.4,114 A2.6,2.6 0 0 1 111.6,114 A2.6,2.6 0 0 1 106.4,114 Z"/><path id="sb_p10" d="M125.4,120 A2.6,2.6 0 0 1 130.6,120 A2.6,2.6 0 0 1 125.4,120 Z"/><path id="sb_p11" d="M82.4,140 A2.6,2.6 0 0 1 87.6,140 A2.6,2.6 0 0 1 82.4,140 Z"/><path id="sb_p12" d="M101.4,136 A2.6,2.6 0 0 1 106.6,136 A2.6,2.6 0 0 1 101.4,136 Z"/><path id="sb_p13" d="M119.4,140 A2.6,2.6 0 0 1 124.6,140 A2.6,2.6 0 0 1 119.4,140 Z"/><path id="sb_p14" d="M97.4,156 A2.6,2.6 0 0 1 102.6,156 A2.6,2.6 0 0 1 97.4,156 Z"/><path id="sb_p15" d="M80.91,98 A1.09,1.09 0 0 1 83.09,98 A1.09,1.09 0 0 1 80.91,98 Z"/><path id="sb_p16" d="M98.91,92 A1.09,1.09 0 0 1 101.09,92 A1.09,1.09 0 0 1 98.91,92 Z"/><path id="sb_p17" d="M116.91,98 A1.09,1.09 0 0 1 119.09,98 A1.09,1.09 0 0 1 116.91,98 Z"/><path id="sb_p18" d="M70.91,120 A1.09,1.09 0 0 1 73.09,120 A1.09,1.09 0 0 1 70.91,120 Z"/><path id="sb_p19" d="M89.91,114 A1.09,1.09 0 0 1 92.09,114 A1.09,1.09 0 0 1 89.91,114 Z"/><path id="sb_p20" d="M107.91,114 A1.09,1.09 0 0 1 110.09,114 A1.09,1.09 0 0 1 107.91,114 Z"/><path id="sb_p21" d="M126.91,120 A1.09,1.09 0 0 1 129.09,120 A1.09,1.09 0 0 1 126.91,120 Z"/><path id="sb_p22" d="M83.91,140 A1.09,1.09 0 0 1 86.09,140 A1.09,1.09 0 0 1 83.91,140 Z"/><path id="sb_p23" d="M102.91,136 A1.09,1.09 0 0 1 105.09,136 A1.09,1.09 0 0 1 102.91,136 Z"/><path id="sb_p24" d="M120.91,140 A1.09,1.09 0 0 1 123.09,140 A1.09,1.09 0 0 1 120.91,140 Z"/><path id="sb_p25" d="M98.91,156 A1.09,1.09 0 0 1 101.09,156 A1.09,1.09 0 0 1 98.91,156 Z"/></defs><g class="sb_neon"><g filter="url(#sb_gw)"><g stroke="#ff2e63" stroke-width="16.0" opacity="0.26" fill="none" stroke-linecap="round" stroke-linejoin="round"><use href="#sb_p1"/></g><g stroke="#39ff8b" stroke-width="16.0" opacity="0.26" fill="none" stroke-linecap="round" stroke-linejoin="round"><use href="#sb_p2"/><use href="#sb_p3"/></g><g fill="#ffd86b" opacity="0.22"><use href="#sb_p4"/><use href="#sb_p5"/><use href="#sb_p6"/><use href="#sb_p7"/><use href="#sb_p8"/><use href="#sb_p9"/><use href="#sb_p10"/><use href="#sb_p11"/><use href="#sb_p12"/><use href="#sb_p13"/><use href="#sb_p14"/></g></g><g filter="url(#sb_gs)"><g stroke="#ff2e63" stroke-width="9.0" opacity="0.5" fill="none" stroke-linecap="round" stroke-linejoin="round"><use href="#sb_p1"/></g><g stroke="#39ff8b" stroke-width="9.0" opacity="0.5" fill="none" stroke-linecap="round" stroke-linejoin="round"><use href="#sb_p2"/><use href="#sb_p3"/></g><g fill="#ffd86b" opacity="0.50"><use href="#sb_p4"/><use href="#sb_p5"/><use href="#sb_p6"/><use href="#sb_p7"/><use href="#sb_p8"/><use href="#sb_p9"/><use href="#sb_p10"/><use href="#sb_p11"/><use href="#sb_p12"/><use href="#sb_p13"/><use href="#sb_p14"/></g></g><g stroke="#ff2e63" stroke-width="6.5" fill="none" stroke-linecap="round" stroke-linejoin="round"><use href="#sb_p1"/></g><g stroke="#39ff8b" stroke-width="6.5" fill="none" stroke-linecap="round" stroke-linejoin="round"><use href="#sb_p2"/><use href="#sb_p3"/></g><g fill="#ffd86b"><use href="#sb_p4"/><use href="#sb_p5"/><use href="#sb_p6"/><use href="#sb_p7"/><use href="#sb_p8"/><use href="#sb_p9"/><use href="#sb_p10"/><use href="#sb_p11"/><use href="#sb_p12"/><use href="#sb_p13"/><use href="#sb_p14"/></g><g fill="#ffffff" opacity="0.85"><use href="#sb_p15"/><use href="#sb_p16"/><use href="#sb_p17"/><use href="#sb_p18"/><use href="#sb_p19"/><use href="#sb_p20"/><use href="#sb_p21"/><use href="#sb_p22"/><use href="#sb_p23"/><use href="#sb_p24"/><use href="#sb_p25"/></g><g stroke="#ffeef2" stroke-width="2.0" opacity="0.92" fill="none" stroke-linecap="round" stroke-linejoin="round"><use href="#sb_p1"/></g><g stroke="#effff5" stroke-width="2.0" opacity="0.92" fill="none" stroke-linecap="round" stroke-linejoin="round"><use href="#sb_p2"/><use href="#sb_p3"/></g></g></svg>